<?xml version="1.0" standalone="no"?>
<!DOCTYPE svg PUBLIC "-//W3C//DTD SVG 20010904//EN"
 "http://www.w3.org/TR/2001/REC-SVG-20010904/DTD/svg10.dtd">
<svg version="1.0" xmlns="http://www.w3.org/2000/svg"
 width="700.000000pt" height="700.000000pt" viewBox="0 0 700.000000 700.000000"
 preserveAspectRatio="xMidYMid meet">
<metadata>
Created by potrace 1.11, written by Peter Selinger 2001-2013
</metadata>
<g transform="translate(0.000000,700.000000) scale(0.100000,-0.100000)"
fill="#000000" stroke="none">
<path d="M3453 5840 c-13 -5 -31 -23 -42 -40 -17 -29 -18 -56 -18 -371 0 -330
0 -341 21 -372 41 -60 131 -60 172 0 20 30 21 42 21 372 0 315 -1 343 -18 371
-28 45 -83 61 -136 40z"/>
<path d="M1568 5425 c-53 -30 -65 -89 -33 -160 7 -16 40 -91 73 -165 33 -74
72 -162 87 -195 15 -33 41 -91 58 -130 17 -38 37 -77 45 -87 41 -49 133 -43
165 11 33 57 27 78 -134 429 -16 35 -29 65 -29 68 0 5 -54 124 -78 172 -10 18
-25 40 -34 48 -24 23 -88 27 -120 9z"/>
<path d="M5333 5430 c-12 -5 -29 -21 -39 -35 -22 -33 -252 -547 -269 -600 -29
-91 61 -174 142 -131 35 18 49 38 87 126 42 96 58 133 116 260 49 108 71 158
75 170 1 3 9 21 18 41 9 20 18 49 20 65 11 76 -73 135 -150 104z"/>
<path d="M3318 4645 c-2 -1 -49 -6 -105 -9 -57 -4 -111 -9 -120 -10 -10 -2
-47 -7 -83 -11 -36 -4 -67 -8 -70 -10 -3 -2 -26 -6 -50 -10 -25 -3 -85 -15
-135 -27 -49 -11 -98 -21 -108 -23 -23 -5 -32 -8 -142 -40 -616 -183 -1180
-540 -1606 -1016 -35 -39 -69 -77 -74 -83 -73 -79 -261 -344 -337 -476 -106
-182 -120 -212 -232 -465 -79 -179 -196 -608 -221 -810 -1 -11 -5 -47 -9 -80
-4 -33 -9 -73 -11 -90 -2 -16 -7 -99 -10 -182 l-7 -153 268 -1 c343 0 2361 0
2435 1 l56 0 7 63 c26 261 182 486 411 597 106 51 190 72 303 75 394 11 715
-274 757 -672 l7 -63 56 0 c75 -1 2059 -1 2420 0 l284 0 -6 143 c-3 78 -8 160
-11 182 -2 22 -7 65 -11 95 -3 30 -7 64 -9 75 -2 11 -6 40 -10 65 -12 83 -66
322 -96 424 -171 580 -482 1095 -923 1526 -104 102 -117 113 -266 232 -446
358 -969 594 -1555 703 -27 5 -147 21 -305 41 -55 6 -486 15 -492 9z"/>
<path d="M152 4425 c-39 -17 -66 -72 -57 -116 7 -30 26 -50 321 -340 114 -111
189 -178 206 -181 37 -7 88 13 110 42 17 24 23 50 19 94 0 10 -56 72 -123 138
-68 66 -180 176 -249 244 -70 68 -131 125 -135 125 -49 7 -63 5 -92 -6z"/>
<path d="M6747 4421 c-43 -28 -476 -456 -491 -486 -27 -52 4 -121 64 -141 67
-22 56 -30 384 294 208 206 219 221 192 285 -24 57 -98 82 -149 48z"/>
</g>
</svg>
