<svg id="Layer_1" enable-background="new 0 0 511.485 511.485" height="512" viewBox="0 0 511.485 511.485" width="512" xmlns="http://www.w3.org/2000/svg"><g><path d="m0 182.753v63.997c146.211 0 264.738 118.491 264.738 264.657h64.017c0-181.51-147.189-328.654-328.755-328.654z" fill="#8cea79"/><path d="m0 304.951v46.86c0 7.971 6.031 14.688 13.966 15.447 68.853 6.585 123.639 61.353 130.227 130.184.759 7.934 7.476 13.965 15.447 13.965h46.88c-.001-114.022-92.463-206.456-206.52-206.456z" fill="#da99fa"/><path d="m0 246.751v58.201c114.057 0 206.519 92.434 206.519 206.456h58.218c.001-146.166-118.526-264.657-264.737-264.657z" fill="#93f2f1"/><path d="m0 116.934v65.819c181.566 0 328.755 147.144 328.755 328.655h65.839c0-217.862-176.666-394.474-394.594-394.474z" fill="#ffef31"/><path d="m0 57.775v59.159c217.928 0 394.594 176.612 394.594 394.474h59.177c0-250.535-203.16-453.633-453.771-453.633z" fill="#ff7639"/><path d="m0 15.618v42.156c250.611 0 453.771 203.098 453.771 453.633h42.174c8.75 0 15.802-7.226 15.533-15.972-8.278-269.837-225.586-487.077-495.507-495.35-8.745-.268-15.971 6.784-15.971 15.533z" fill="#f10"/><path d="m206.511 511.384c0-57.074-23.167-108.737-60.612-146.108l-43.601 43.588c23.194 23.132 38.587 54.079 41.887 88.555.759 7.934 7.476 13.965 15.447 13.965z" fill="#ab5aea"/><path d="m264.73 511.384c0-73.145-29.684-139.359-77.664-187.262l-41.167 41.154c37.445 37.371 60.612 89.034 60.612 146.108z" fill="#00e0e2"/><path d="m328.747 511.384c0-90.818-36.849-173.03-96.414-232.515l-45.267 45.253c47.98 47.903 77.664 114.117 77.664 187.262z" fill="#00d06b"/><path d="m394.586 511.384c0-108.993-44.218-207.661-115.697-279.057l-46.556 46.542c59.565 59.484 96.414 141.697 96.414 232.515z" fill="#ff9f00"/><path d="m453.763 511.384c0-125.33-50.841-238.788-133.03-320.889l-41.845 41.832c71.479 71.395 115.697 170.064 115.697 279.057z" fill="#ff3e00"/><path d="m495.937 511.384c8.75 0 15.802-7.226 15.533-15.972-4.141-134.98-60.587-256.798-149.759-345.883l-40.978 40.966c82.188 82.101 133.03 195.559 133.03 320.889z" fill="#c30010"/></g></svg>